<svg width="80" height="80" viewBox="0 0 80 80" fill="none" xmlns="http://www.w3.org/2000/svg">
<path fill-rule="evenodd" clip-rule="evenodd" d="M15 0C6.71573 0 0 6.71573 0 15V65C0 73.2843 6.71573 80 15 80H65C73.2843 80 80 73.2843 80 65V15C80 6.71573 73.2843 0 65 0H15ZM10 39.9121C10 23.3842 23.4264 9.99331 40.0034 10C56.5669 10 70 23.3842 70 39.9188C70 53.1023 61.4535 64.2925 49.5822 68.2857C48.6654 68.2857 48.6291 67.7909 48.5892 67.2473C48.5853 67.1946 48.5814 67.1416 48.5767 67.0884V59.5636C48.5775 58.4306 48.3521 57.3088 47.9136 56.2637C47.4751 55.2187 46.8323 54.2713 46.0228 53.4768C55.4743 51.818 59.4291 46.0724 59.4291 39.2365C59.4291 35.9189 58.3231 32.8488 56.1513 30.3873C57.3783 26.5802 56.1072 23.3264 55.8176 22.585C55.8035 22.5488 55.7917 22.5186 55.7826 22.4946C52.1629 22.1668 48.4091 24.8557 47.6517 25.4309C45.4195 24.8289 42.8857 24.5012 40.0436 24.5012C37.2148 24.5012 34.6877 24.8156 32.4757 25.4109C32.1607 25.1634 28.1119 22.0331 24.2174 22.3809C24.2101 22.3997 24.201 22.4225 24.1904 22.4491C23.9109 23.15 22.5715 26.5086 23.889 30.4074C21.7439 32.8621 20.6513 35.9055 20.6513 39.2164C20.6513 46.039 24.5794 51.7779 34.004 53.4635C32.8779 54.5537 32.0601 55.9584 31.678 57.5302C29.9285 57.965 26.4764 58.4064 24.7067 55.7911C22.2601 52.1859 20.1486 50.8548 18.0773 51.9184C17.6175 52.4478 18.2122 52.8468 19.0577 53.4142C19.8146 53.9221 20.7726 54.565 21.3552 55.557C21.4444 55.7039 21.5286 55.9579 21.6356 56.2813C22.26 58.1672 23.6652 62.4112 31.43 61.5033V66.6871C31.43 66.7747 31.4332 66.867 31.4364 66.9612C31.4615 67.6864 31.4903 68.5213 30.0961 68.172C18.3991 64.0919 10 52.9819 10 39.9121Z" fill="#0099FF"/>
</svg>
