<svg width="80" height="80" viewBox="0 0 80 80" fill="none" xmlns="http://www.w3.org/2000/svg">
<path d="M66.6667 25.1042C64.7222 25.9722 62.6215 26.5625 60.3646 26.875C62.7257 25.4861 64.3403 23.4549 65.2083 20.7812C62.9514 22.1007 60.625 22.9861 58.2292 23.4375C56.1111 21.1458 53.4549 20 50.2604 20C47.2396 20 44.6615 21.0677 42.526 23.2031C40.3906 25.3385 39.3229 27.9167 39.3229 30.9375C39.3229 31.9444 39.4097 32.7778 39.5833 33.4375C35.1042 33.1944 30.9028 32.066 26.9792 30.0521C23.0556 28.0382 19.7222 25.3472 16.9792 21.9792C15.9722 23.7153 15.4688 25.5556 15.4688 27.5C15.4688 31.4583 17.0486 34.4965 20.2083 36.6146C18.5764 36.5799 16.8403 36.1285 15 35.2604V35.3646C15 37.9688 15.8681 40.2865 17.6042 42.3177C19.3403 44.349 21.4757 45.6076 24.0104 46.0938C23.0035 46.3715 22.1181 46.5104 21.3542 46.5104C20.9028 46.5104 20.2257 46.441 19.3229 46.3021C20.0521 48.4896 21.3455 50.2951 23.2031 51.7188C25.0608 53.1424 27.1701 53.8715 29.5312 53.9062C25.5035 57.0312 20.9722 58.5938 15.9375 58.5938C15.0347 58.5938 14.1667 58.5417 13.3333 58.4375C18.4722 61.7014 24.0625 63.3333 30.1042 63.3333C33.9931 63.3333 37.6389 62.717 41.0417 61.4844C44.4444 60.2517 47.3611 58.6024 49.7917 56.5365C52.2222 54.4705 54.3142 52.092 56.0677 49.401C57.8212 46.7101 59.1233 43.8976 59.974 40.9635C60.8246 38.0295 61.25 35.1042 61.25 32.1875C61.25 31.5625 61.2326 31.0938 61.1979 30.7812C63.3854 29.2188 65.2083 27.3264 66.6667 25.1042ZM80 15V65C80 69.1319 78.533 72.6649 75.599 75.599C72.6649 78.533 69.1319 80 65 80H15C10.8681 80 7.33507 78.533 4.40104 75.599C1.46701 72.6649 0 69.1319 0 65V15C0 10.8681 1.46701 7.33507 4.40104 4.40104C7.33507 1.46701 10.8681 0 15 0H65C69.1319 0 72.6649 1.46701 75.599 4.40104C78.533 7.33507 80 10.8681 80 15Z" fill="#702AF7"/>
</svg>
